<mxfile host="app.diagrams.net" modified="2023-08-04T18:07:25.508Z" agent="Mozilla/5.0 (Macintosh; Intel Mac OS X 10_15_7) AppleWebKit/537.36 (KHTML, like Gecko) Chrome/115.0.0.0 Safari/537.36" etag="VC8gwlCfz67OQIzMayPc" version="21.3.7" type="device">
  <diagram name="Page-1" id="OjYdK4II-sp3FTS1gZaA">
    <mxGraphModel dx="1089" dy="741" grid="1" gridSize="10" guides="1" tooltips="1" connect="1" arrows="1" fold="1" page="1" pageScale="1" pageWidth="850" pageHeight="1100" math="0" shadow="0">
      <root>
        <mxCell id="0" />
        <mxCell id="1" parent="0" />
        <mxCell id="SraO-4PZSHpIVf2TnJLi-4" value="Docker" style="fillColor=none;strokeColor=#009999;dashed=0;verticalAlign=top;fontStyle=0;fontColor=#232F3D;whiteSpace=wrap;html=1;" parent="1" vertex="1">
          <mxGeometry x="20" y="10" width="390" height="190" as="geometry" />
        </mxCell>
        <mxCell id="SraO-4PZSHpIVf2TnJLi-3" value="LocalStack Cloud" style="points=[[0,0],[0.25,0],[0.5,0],[0.75,0],[1,0],[1,0.25],[1,0.5],[1,0.75],[1,1],[0.75,1],[0.5,1],[0.25,1],[0,1],[0,0.75],[0,0.5],[0,0.25]];outlineConnect=0;gradientColor=none;html=1;whiteSpace=wrap;fontSize=12;fontStyle=0;container=0;pointerEvents=0;collapsible=0;recursiveResize=0;shape=mxgraph.aws4.group;grIcon=mxgraph.aws4.group_aws_cloud;strokeColor=#232F3E;fillColor=none;verticalAlign=top;align=left;spacingLeft=30;fontColor=#232F3E;dashed=0;" parent="1" vertex="1">
          <mxGeometry x="75" y="35" width="280" height="140" as="geometry" />
        </mxCell>
        <mxCell id="SraO-4PZSHpIVf2TnJLi-5" value="" style="verticalLabelPosition=bottom;sketch=0;aspect=fixed;html=1;verticalAlign=top;strokeColor=none;align=center;outlineConnect=0;shape=mxgraph.citrix.laptop_2;" parent="1" vertex="1">
          <mxGeometry x="30" y="230" width="116" height="86.5" as="geometry" />
        </mxCell>
        <mxCell id="SraO-4PZSHpIVf2TnJLi-7" value="&lt;font style=&quot;font-size: 14px;&quot;&gt;1&lt;/font&gt;" style="text;html=1;align=center;verticalAlign=middle;resizable=0;points=[];autosize=1;strokeColor=#6c8ebf;fillColor=#dae8fc;strokeWidth=4;rounded=1;glass=0;shadow=0;" parent="1" vertex="1">
          <mxGeometry x="215" y="390" width="30" height="30" as="geometry" />
        </mxCell>
        <mxCell id="SraO-4PZSHpIVf2TnJLi-18" style="edgeStyle=orthogonalEdgeStyle;curved=1;rounded=0;orthogonalLoop=1;jettySize=auto;html=1;exitX=0;exitY=0.5;exitDx=0;exitDy=0;endArrow=none;endFill=0;" parent="1" source="SraO-4PZSHpIVf2TnJLi-17" target="SraO-4PZSHpIVf2TnJLi-5" edge="1">
          <mxGeometry relative="1" as="geometry" />
        </mxCell>
        <mxCell id="SraO-4PZSHpIVf2TnJLi-23" style="edgeStyle=orthogonalEdgeStyle;curved=1;rounded=0;orthogonalLoop=1;jettySize=auto;html=1;exitX=0.25;exitY=0;exitDx=0;exitDy=0;entryX=1.063;entryY=0.563;entryDx=0;entryDy=0;entryPerimeter=0;" parent="1" source="SraO-4PZSHpIVf2TnJLi-17" target="xJ1CgindHM7h0cZWjjmE-4" edge="1">
          <mxGeometry relative="1" as="geometry">
            <Array as="points">
              <mxPoint x="190" y="243" />
              <mxPoint x="190" y="97" />
            </Array>
          </mxGeometry>
        </mxCell>
        <mxCell id="SraO-4PZSHpIVf2TnJLi-24" style="edgeStyle=orthogonalEdgeStyle;curved=1;rounded=0;orthogonalLoop=1;jettySize=auto;html=1;exitX=0.75;exitY=0;exitDx=0;exitDy=0;" parent="1" source="SraO-4PZSHpIVf2TnJLi-17" target="xJ1CgindHM7h0cZWjjmE-5" edge="1">
          <mxGeometry relative="1" as="geometry">
            <mxPoint x="420" y="250" as="targetPoint" />
            <Array as="points">
              <mxPoint x="358" y="160" />
              <mxPoint x="230" y="160" />
              <mxPoint x="230" y="94" />
            </Array>
          </mxGeometry>
        </mxCell>
        <mxCell id="SraO-4PZSHpIVf2TnJLi-17" value="&lt;span style=&quot;font-size: 14px;&quot;&gt;CLI&lt;/span&gt;" style="rounded=1;whiteSpace=wrap;html=1;" parent="1" vertex="1">
          <mxGeometry x="170" y="243.25" width="420" height="60" as="geometry" />
        </mxCell>
        <mxCell id="SraO-4PZSHpIVf2TnJLi-22" value="&lt;ol style=&quot;font-size: 16px;&quot;&gt;&lt;li&gt;LocalStack awslocal wrapper CLI&lt;/li&gt;&lt;li&gt;AWS_PROFILE with endpoint_url&lt;br&gt;using AWS CLI&lt;/li&gt;&lt;li&gt;AWS CLI using endpoint-url&lt;/li&gt;&lt;li&gt;Deploy and Invoke Lambda&lt;/li&gt;&lt;/ol&gt;" style="text;html=1;align=left;verticalAlign=middle;resizable=0;points=[];autosize=1;strokeColor=#666666;fillColor=#f5f5f5;fontColor=#333333;" parent="1" vertex="1">
          <mxGeometry x="470" y="10" width="300" height="140" as="geometry" />
        </mxCell>
        <mxCell id="SraO-4PZSHpIVf2TnJLi-25" value="&lt;font style=&quot;font-size: 14px;&quot;&gt;2&lt;/font&gt;" style="text;html=1;align=center;verticalAlign=middle;resizable=0;points=[];autosize=1;strokeColor=#6c8ebf;fillColor=#dae8fc;strokeWidth=4;rounded=1;glass=0;shadow=0;" parent="1" vertex="1">
          <mxGeometry x="345" y="390" width="30" height="30" as="geometry" />
        </mxCell>
        <mxCell id="SraO-4PZSHpIVf2TnJLi-26" value="&lt;font style=&quot;font-size: 14px;&quot;&gt;3&lt;/font&gt;" style="text;html=1;align=center;verticalAlign=middle;resizable=0;points=[];autosize=1;strokeColor=#6c8ebf;fillColor=#dae8fc;strokeWidth=4;rounded=1;glass=0;shadow=0;" parent="1" vertex="1">
          <mxGeometry x="495" y="390" width="30" height="30" as="geometry" />
        </mxCell>
        <mxCell id="xJ1CgindHM7h0cZWjjmE-1" value="&lt;font style=&quot;font-size: 16px;&quot;&gt;LocalStack&lt;br&gt;awslocal&lt;/font&gt;" style="text;html=1;align=center;verticalAlign=middle;resizable=0;points=[];autosize=1;strokeColor=default;" vertex="1" parent="1">
          <mxGeometry x="180" y="330" width="100" height="50" as="geometry" />
        </mxCell>
        <mxCell id="xJ1CgindHM7h0cZWjjmE-2" value="&lt;font style=&quot;font-size: 16px;&quot;&gt;AWS Profile&lt;br&gt;with endpoint-url&lt;/font&gt;" style="text;html=1;align=center;verticalAlign=middle;resizable=0;points=[];autosize=1;strokeColor=default;fillColor=none;" vertex="1" parent="1">
          <mxGeometry x="290" y="330" width="140" height="50" as="geometry" />
        </mxCell>
        <mxCell id="xJ1CgindHM7h0cZWjjmE-4" value="Python Lambda" style="sketch=0;outlineConnect=0;fontColor=#232F3E;gradientColor=none;fillColor=#D45B07;strokeColor=none;dashed=0;verticalLabelPosition=bottom;verticalAlign=top;align=center;html=1;fontSize=12;fontStyle=0;aspect=fixed;pointerEvents=1;shape=mxgraph.aws4.lambda_function;" vertex="1" parent="1">
          <mxGeometry x="112" y="70" width="48" height="48" as="geometry" />
        </mxCell>
        <mxCell id="xJ1CgindHM7h0cZWjjmE-5" value="Node Lambda" style="sketch=0;outlineConnect=0;fontColor=#232F3E;gradientColor=none;fillColor=#D45B07;strokeColor=none;dashed=0;verticalLabelPosition=bottom;verticalAlign=top;align=center;html=1;fontSize=12;fontStyle=0;aspect=fixed;pointerEvents=1;shape=mxgraph.aws4.lambda_function;" vertex="1" parent="1">
          <mxGeometry x="270" y="70" width="48" height="48" as="geometry" />
        </mxCell>
        <mxCell id="xJ1CgindHM7h0cZWjjmE-6" value="&lt;font style=&quot;font-size: 16px;&quot;&gt;AWS CLI&lt;br&gt;with endpoint-url&lt;/font&gt;" style="text;html=1;align=center;verticalAlign=middle;resizable=0;points=[];autosize=1;strokeColor=default;fillColor=none;" vertex="1" parent="1">
          <mxGeometry x="440" y="330" width="140" height="50" as="geometry" />
        </mxCell>
        <mxCell id="xJ1CgindHM7h0cZWjjmE-7" value="&lt;font style=&quot;font-size: 14px;&quot;&gt;4&lt;/font&gt;" style="text;html=1;align=center;verticalAlign=middle;resizable=0;points=[];autosize=1;strokeColor=#6c8ebf;fillColor=#dae8fc;strokeWidth=4;rounded=1;glass=0;shadow=0;" vertex="1" parent="1">
          <mxGeometry x="279" y="210" width="30" height="30" as="geometry" />
        </mxCell>
      </root>
    </mxGraphModel>
  </diagram>
</mxfile>
